<svg xmlns="http://www.w3.org/2000/svg" viewBox="0 0 96 96" fill="none">
  <defs>
    <linearGradient id="b3armor" x1="0" y1="0" x2="0" y2="1">
      <stop offset="0%" stop-color="#ffd08a"/>
      <stop offset="100%" stop-color="#ff9a3c"/>
    </linearGradient>
  </defs>
  <ellipse cx="48" cy="86" rx="26" ry="5" fill="#000" opacity=".18"/>
  <ellipse cx="48" cy="54" rx="32" ry="26" fill="url(#b3armor)" stroke="#c45e10" stroke-width="3"/>
  <path d="M22 44 H74 V56 L64 68 H32 L22 56 Z" fill="#ffe0b0" stroke="#c45e10" stroke-width="2"/>
  <path d="M34 20 L48 8 L62 20 L56 34 H40 Z" fill="#ffc878" stroke="#c45e10" stroke-width="2"/>
  <circle cx="48" cy="18" r="5" fill="#ff9a3c"/>
  <ellipse cx="36" cy="52" rx="8" ry="9" fill="#fff"/>
  <ellipse cx="60" cy="52" rx="8" ry="9" fill="#fff"/>
  <ellipse cx="37" cy="53" rx="3.5" ry="4.5" fill="#5a2a00"/>
  <ellipse cx="61" cy="53" rx="3.5" ry="4.5" fill="#5a2a00"/>
  <circle cx="35.5" cy="50.5" r="1.4" fill="#fff"/>
  <circle cx="59.5" cy="50.5" r="1.4" fill="#fff"/>
  <path d="M20 50 L10 46" stroke="#c45e10" stroke-width="4" stroke-linecap="round"/>
  <path d="M76 50 L86 46" stroke="#c45e10" stroke-width="4" stroke-linecap="round"/>
  <path d="M40 68 Q48 74 56 68" stroke="#5a2a00" stroke-width="2.5" stroke-linecap="round" fill="none"/>
</svg>
